<?xml version="1.0" ?>
<svg enable-background="new 0 0 141.732 141.732" fill="#888" height="141.732px" id="Livello_1" version="1.1" viewBox="0 0 141.732 141.732" width="141.732px" xml:space="preserve" xmlns="http://www.w3.org/2000/svg" xmlns:xlink="http://www.w3.org/1999/xlink"><g id="Livello_112"><path d="M60.411,84.324c0,3.896-2.44,7.211-5.876,8.528v29.33h-6.527V92.853c-3.434-1.317-5.875-4.634-5.875-8.528   c0-5.05,4.091-9.139,9.138-9.139C56.32,75.184,60.411,79.275,60.411,84.324 M140.009,50.629V32.912   C140.009,14.735,125.275,0,107.098,0C88.921,0,74.185,14.735,74.185,32.912v22.979H6.229v0.001c-0.004,0-0.009-0.001-0.013-0.001   c-2.48,0.001-4.493,2.013-4.493,4.497c0,0.004,0,0.008,0,0.012v76.572c0,0.005,0,0.009,0,0.012c0,2.48,2.013,4.495,4.494,4.495   h0.012h90.088h0.012c2.481,0,4.497-2.011,4.497-4.495c0-0.003,0-0.007,0-0.012V60.399c0-0.004,0-0.008,0-0.012   c0-2.482-2.011-4.497-4.497-4.497c-0.004,0-0.008,0.001-0.012,0.001V55.89H84.313V32.912c0-12.583,10.2-22.785,22.785-22.785   c12.583,0,22.784,10.202,22.784,22.785v17.207c-0.019,0.168-0.025,0.338-0.025,0.511c0,2.804,2.272,5.075,5.075,5.075   C137.735,55.704,140.009,53.432,140.009,50.629"/></g><g id="Livello_1_1_"/></svg>
